<svg width="617" height="466" viewBox="0 0 617 466" fill="none" xmlns="http://www.w3.org/2000/svg">
<path d="M80.4199 5.68665C79.5755 21.976 79.095 31.8289 79.1852 35.2577C79.6392 39.6542 79.6877 54.7507 79.4982 75.3585C79.5881 83.3725 80.0557 86.4251 81.3839 89.7671" stroke="#FF00CC" stroke-width="11.3731" stroke-linecap="round"/>
<path d="M67.4105 34.7763C72.2818 26.4888 76.2981 20.8035 80.968 17.8886C88.1775 13.3885 95.0056 13.2448 99.1705 13.7674C107.013 14.7514 112.865 18.2724 114.777 21.5363C117.773 26.6471 117.736 31.8857 115.108 41.9616C113.287 48.9393 101.942 47.5531 93.0739 48.6129C90.3654 48.7324 87.1634 48.5765 84.1175 48.1714C81.0715 47.7663 78.2787 47.1168 75.4012 46.4476" stroke="#FF00CC" stroke-width="11.3731" stroke-linecap="round"/>
<path d="M122.342 55.5801C118.158 69.7368 117.173 79.0352 118.67 84.7403C120.274 90.8546 128.405 93.2624 135.926 94.8731C138.901 94.2402 142.266 84.9869 145.167 71.2455C146.055 66.1619 145.756 64.9149 146.039 61.0911" stroke="#FF00CC" stroke-width="11.3731" stroke-linecap="round"/>
<path d="M167.374 76.7581C169.348 78.3948 171.353 80.0564 173.687 81.4912C178.881 84.6847 185.955 81.0972 191.755 77.9856C194.16 76.6954 195.054 72.8117 195.027 68.5009C194.998 64.0101 190.117 62.127 187.266 61.0179C183.106 59.3994 179.117 59.5598 176.162 60.7952C171.936 62.5624 169.032 65.832 167.067 67.8951C162.114 73.0953 163.083 84.9307 165.228 92.2943C167.55 100.262 175.701 102.174 189.296 105.648C193.748 106.786 197.525 104.306 200.924 101.831C202.258 100.643 202.797 99.5907 203.237 98.3504C203.677 97.1102 204.002 95.7138 204.336 94.275" stroke="#FF00CC" stroke-width="11.3731" stroke-linecap="round"/>
<path d="M260.172 80.498C255.925 75.9775 251.223 73.0642 246.619 72.435C239.864 71.512 235.257 76.4698 230.878 81.8344C226.357 87.3728 226.162 96.318 227.408 103.044C228.513 109.011 237.387 110.579 246.439 112.546C252.509 110.84 257.239 108.38 260.491 104.676C261.042 103.609 261.302 102.492 261.57 101.341" stroke="#FF00CC" stroke-width="11.3731" stroke-linecap="round"/>
<path d="M272.16 40.4655C269.139 64.9643 265.881 81.5042 264.898 87.6675C264.629 90.7228 264.602 93.4105 264.501 95.7601C264.382 96.9276 264.122 98.0447 264.11 101.931" stroke="#FF00CC" stroke-width="11.3731" stroke-linecap="round"/>
<path d="M307.449 84.3559C296.152 93.3079 293.754 101.047 293.23 108.383C293.118 109.949 294.04 111.247 294.971 112.365C300.666 119.2 314.639 117.269 319.676 115.461C322.271 114.529 323.765 111.363 325.103 107.526C326.812 102.626 326.578 98.0378 325.479 95.1105C324.541 92.6121 322.666 90.58 320.742 88.6473C318.689 87.2732 314.812 86.0683 310.139 85.7174C308.258 86.0161 307.375 87.2826 306.465 88.5875" stroke="#FF00CC" stroke-width="11.3731" stroke-linecap="round"/>
<path d="M51.6641 140.841L36.5088 206.007" stroke="#FF00CC" stroke-width="11.3731" stroke-linecap="round"/>
<path d="M50.6221 141.491C61.982 175.614 69.8823 195.231 73.2676 205.167C73.757 206.917 74.1402 209.067 74.6591 210.691C75.178 212.315 75.821 213.348 77.133 215.455" stroke="#FF00CC" stroke-width="11.3731" stroke-linecap="round"/>
<path d="M37.5718 193.765C41.0531 193.986 44.1585 193.522 48.8126 191.941C57.487 189.529 64.293 187.499 67.2161 186.399C68.8273 185.877 70.6978 185.429 74.7113 183.669" stroke="#FF00CC" stroke-width="11.3731" stroke-linecap="round"/>
<path d="M106.753 183.984C107.313 187.941 107.331 198.07 109.735 203.688C111.962 207.462 114.917 211.441 117.923 215.106C119.299 216.92 120.371 218.641 124.014 221.005" stroke="#FF00CC" stroke-width="11.3731" stroke-linecap="round"/>
<path d="M134.013 201.028C129.661 207.082 120.671 222.761 110.005 242.427C105.203 250.797 102.481 256.097 99.4657 262.675C98.2627 265.259 97.7235 266.311 97.1681 267.395" stroke="#FF00CC" stroke-width="11.3731" stroke-linecap="round"/>
<path d="M152.592 190.184C153.995 199.342 154.607 205.8 154.836 209.265C155.071 212.823 158.051 215.236 161.087 216.834C164.794 218.786 168.64 218.305 171.455 217.038C177.385 211.427 179.585 204.535 180.678 196.038C180.797 191.73 180.031 187.43 179.438 182.154" stroke="#FF00CC" stroke-width="11.3731" stroke-linecap="round"/>
<path d="M232.579 145.448C231.046 162.166 230.276 171.96 230.507 175.417C231.121 181.024 231.822 193.355 232.232 207.568C232.356 212.882 232.311 214.344 232.52 218.585" stroke="#FF00CC" stroke-width="11.3731" stroke-linecap="round"/>
<path d="M234.232 207.386C232.909 202.948 228.537 193.591 223.884 189.97C221.203 187.884 217.76 187.498 214.881 187.123C211.891 186.733 208.643 188.339 205.864 190.066C201.237 192.941 198.695 202.922 198.836 210.582C198.863 212.081 199.823 213.336 200.615 214.421C202.393 216.325 207.879 218.207 215.305 219.493C218.263 219.739 219.575 219.161 223.013 217.266" stroke="#FF00CC" stroke-width="11.3731" stroke-linecap="round"/>
<path d="M283.161 196.463C281.576 193.15 275.732 190.275 267.287 188.9C262.246 188.079 258.935 191.998 256.219 195.371C253.864 198.297 252.937 203.672 252.013 209.545C251.62 212.041 252.381 213.659 255.578 215.16C264.18 219.201 271.929 219.133 274.442 218.531C276.955 217.929 279.058 216.633 280.633 214.332C281.389 213.018 282.058 211.408 282.727 209.181C283.397 206.955 284.046 204.162 283.869 201.088" stroke="#FF00CC" stroke-width="11.3731" stroke-linecap="round"/>
<path d="M285.267 183.571C286.829 197.298 286.514 203.755 287.744 210.589C288.75 215.89 289.088 219.537 289.69 222.05C289.994 223.316 290.292 224.563 291.899 227.934" stroke="#FF00CC" stroke-width="11.3731" stroke-linecap="round"/>
<path d="M315.42 184.339C315.069 188.379 314.718 192.419 314.564 198.186C314.409 203.953 314.461 211.325 314.228 216.24C313.995 221.154 313.475 223.389 313.589 226.734" stroke="#FF00CC" stroke-width="11.3731" stroke-linecap="round"/>
<path d="M312.9 210.516C314.859 205.931 317.713 201.251 321.763 197.282C324.767 195.166 329.294 192.347 333.983 189.428C335.918 188.223 336.95 187.58 338.014 186.918" stroke="#FF00CC" stroke-width="11.3731" stroke-linecap="round"/>
<path d="M359.545 163.378C353.778 209.889 353.337 216.923 353.766 222.081C353.754 225.334 353.66 228.309 353.699 230.692C353.719 231.892 353.738 233.074 353.168 236.83" stroke="#FF00CC" stroke-width="11.3731" stroke-linecap="round"/>
<path d="M341.164 211.736C341.899 209.838 345.059 206.416 350.219 204.043C355.954 201.804 359.642 199.985 362.569 198.886C363.905 198.3 364.938 197.657 366.848 197.192" stroke="#FF00CC" stroke-width="11.3731" stroke-linecap="round"/>
<path d="M391.509 210.064C402.693 205.011 409.273 201.42 410.955 199.291C412.799 196.957 414.131 193.344 414.425 189.549C414.546 187.978 413.211 187.171 411.446 186.457C409.681 185.743 407.167 185.159 405.324 185.319C399.581 185.817 395.927 191.144 390.433 196.852C388.274 199.095 386.838 203.295 386.194 209.229C385.189 218.493 392.881 221.962 398.385 226.373C404.226 231.055 411.414 229.27 414.131 228.421C419.783 225.275 422.477 222.627 424.451 221.159C425.392 220.335 426.211 219.347 427.447 216.638" stroke="#FF00CC" stroke-width="11.3731" stroke-linecap="round"/>
<path d="M66.3654 303.944C56.6377 301.084 50.0595 301.329 39.5149 305.108C33.5896 307.231 29.3566 312.251 26.6979 317.89C25.4644 320.507 25.8638 323.357 26.7776 325.795C29.026 331.794 39.5449 332.194 50.5648 334.619C53.9441 335.362 56.0809 332.784 58.2269 331.209C60.5029 329.075 62.5451 324.206 63.8147 318.114C64.2399 315.653 64.2204 314.471 63.9445 310.517" stroke="#FF00CC" stroke-width="11.3731" stroke-linecap="round"/>
<path d="M65.5391 292.154C64.6865 308.593 64.841 318.094 65.7293 325.188C66.7249 330.478 69.126 335.496 70.648 338.522C71.3777 339.892 72.0207 340.925 72.6832 341.989" stroke="#FF00CC" stroke-width="11.3731" stroke-linecap="round"/>
<path d="M150.289 280.641C149.35 299.986 147.372 316.199 146.68 328.073C146.769 331.528 147.107 335.139 147.258 337.73C147.409 340.321 147.364 341.782 147.769 345.177" stroke="#FF00CC" stroke-width="11.3731" stroke-linecap="round"/>
<path d="M145.84 330.455C147.115 327.505 150.383 321.128 154.463 315.685C157.156 312.093 161.753 311.863 164.295 311.116C165.746 310.689 167.759 311.467 169.335 312.422C177.79 317.548 181.518 330.403 184.927 334.925C188.887 338.379 191.535 341.073 192.798 343.294C193.418 344.482 193.996 345.794 194.592 347.146" stroke="#FF00CC" stroke-width="11.3731" stroke-linecap="round"/>
<path d="M231.259 308.393C226.362 306.665 222.313 306.009 219.484 306.685C214.397 307.9 211.42 314.448 208.92 320.714C207.21 324.997 207.149 328.942 207.467 331.389C207.635 332.678 208.344 333.965 209.447 334.976C214.765 339.847 223.086 338.322 229.037 337.029C230.652 336.513 232.308 335.72 233.678 334.991C235.047 334.261 236.08 333.618 237.537 331.263" stroke="#FF00CC" stroke-width="11.3731" stroke-linecap="round"/>
<path d="M230.944 302.075C235.693 313.572 239.744 321.624 242.777 327.856C247.774 331.859 254.998 334.128 257.02 335.638C258.055 336.329 259.107 336.868 260.841 338.467" stroke="#FF00CC" stroke-width="11.3731" stroke-linecap="round"/>
<path d="M287.091 291.046C287.221 290.488 285.417 290.648 282.174 291.821C276.766 293.776 274.408 300.854 271.708 314.325C271.086 317.426 272.78 319.209 274.073 320.709C279.605 327.131 289.757 326.761 295.172 326.535C302.235 324.319 308.184 319.182 312.502 314.08C313.36 312.348 313.944 309.834 314.547 307.244" stroke="#FF00CC" stroke-width="11.3731" stroke-linecap="round"/>
<path d="M337.167 301.8C341.271 300.685 347.833 298.054 350.644 293.065C351.502 291.542 351.637 289.447 351.582 287.783C351.528 286.12 350.95 284.808 348.557 283.645C342.334 280.62 336.627 281.147 334.545 282.443C327.806 286.639 328.652 301.283 330.14 306.392C331.859 312.297 337.232 315.482 343.055 317.296C348.286 316.59 352.394 314.271 355.48 312.473C357.253 311.253 359.448 309.408 363.147 305.166" stroke="#FF00CC" stroke-width="11.3731" stroke-linecap="round"/>
<path d="M396.094 270.9C396.029 271.179 395.965 271.459 394.135 278.692C392.306 285.925 388.714 300.103 385.013 314.711" stroke="#FF00CC" stroke-width="11.3731" stroke-linecap="round"/>
<path d="M386.943 291.074C393.567 284.3 397.982 280.581 407.833 277.809C410.03 277.415 411.213 277.395 413.776 277.84C416.34 278.285 420.25 279.194 424.082 280.977" stroke="#FF00CC" stroke-width="11.3731" stroke-linecap="round"/>
<path d="M515.731 238.485C514.342 246.993 513.106 253.611 512.241 258.597C511.895 261.349 511.739 264.551 510.279 275.3C508.818 286.049 506.058 304.248 502.367 322.801" stroke="#FF00CC" stroke-width="11.3731" stroke-linecap="round"/>
<path d="M489.928 284.225C497.579 284.238 505.755 283.758 513.074 282.935C516.158 282.6 517.964 282.431 520.797 281.756C523.63 281.081 527.436 279.906 532.401 278.045" stroke="#FF00CC" stroke-width="11.3731" stroke-linecap="round"/>
<path d="M550.567 280.486C550.246 290.804 550.452 295.018 551.538 297.349C553.894 302.406 560.599 302.445 564.956 302.869C566.798 303.049 567.897 301.787 568.797 300.506C570.366 297.615 571.9 292.325 572.988 285.749C573.231 282.804 572.848 280.654 572.847 276.746" stroke="#FF00CC" stroke-width="11.3731" stroke-linecap="round"/>
<path d="M9.51147 420.693C8.09692 426.776 7.33012 431.133 6.94597 434.391C6.59991 436.426 5.94704 439.233 5.49101 442.254C5.03499 445.275 4.79558 448.425 4.76321 453.962" stroke="#FF00CC" stroke-width="9.52652" stroke-linecap="round"/>
<path d="M49.2098 429.926C44.9989 428.946 41.7851 428.692 39.5985 429.547C36.9734 430.574 34.2743 433.163 31.5442 435.263C27.6182 438.282 28.1631 445.431 28.9484 450.601C29.1615 452.005 30.0448 453.341 31.0614 454.336C37.8585 457.176 48.6791 457.719 54.4778 455.952C55.4349 454.568 56.0877 451.761 56.2164 447.995" stroke="#FF00CC" stroke-width="9.52652" stroke-linecap="round"/>
<path d="M48.9795 405.213C49.6399 409.827 50.3933 419.44 51.3334 428.764C52.4407 439.746 55.9094 443.918 56.3136 448.622C57.0202 450.901 57.9489 453.366 58.8422 455.936C59.3057 457.172 59.7899 458.271 60.6679 460.986" stroke="#FF00CC" stroke-width="9.52652" stroke-linecap="round"/>
<path d="M15.2163 402.591C14.7484 402.483 14.2805 402.374 14.3088 402.75C14.3371 403.127 14.8757 403.992 15.5856 404.168C16.2956 404.344 17.1606 403.806 18.9257 402.707" stroke="#FF00CC" stroke-width="9.52652" stroke-linecap="round"/>
<path d="M76.4777 434.773C78.9402 434.852 84.7713 433.234 91.009 432.182C93.3642 431.784 95.5846 430.757 97.7647 429.4C98.7914 428.761 99.6564 428.222 99.3295 427.025C97.4264 420.058 91.4028 417.829 86.23 416.488C83.8716 415.876 82.0406 418.371 80.749 420.182C77.9269 424.138 76.2766 432.424 77.0777 441.238C77.5881 446.852 81.6003 450.147 86.5851 453.309C91.0674 456.152 96.3936 455.104 99.2274 454.149C101.414 452.797 102.813 451.119 103.867 449.254C104.469 448.269 105.209 447.208 107.175 444.153" stroke="#FF00CC" stroke-width="9.52652" stroke-linecap="round"/>
<path d="M142.802 409.846C139.168 408.508 136.305 407.835 134.228 408.218C129.065 409.172 126.01 417.852 123.237 423.831C122.165 426.142 122.51 428.531 123.159 430.546C124.526 434.796 128.778 437.954 131.826 440.912C133.379 442.419 136.216 443.435 139.772 443.646C142.899 442.523 145.249 441.06 146.941 438.606C147.767 436.691 148.529 433.416 148.226 428.294" stroke="#FF00CC" stroke-width="9.52652" stroke-linecap="round"/>
<path d="M144.334 406.466C145.613 409.483 148.899 416.719 151.02 421.58C154.262 426.948 155.738 431.267 158.45 435.144C159.117 436.05 159.656 436.915 160.919 437.971" stroke="#FF00CC" stroke-width="9.52652" stroke-linecap="round"/>
<path d="M258.985 414.464C256.658 419.429 254.994 425.683 252.717 437.705C252.289 441.688 252.355 444.291 252.291 446.813C252.194 448.054 251.967 449.214 251.364 451.196" stroke="#FF00CC" stroke-width="11.3731" stroke-linecap="round"/>
<path d="M259.846 433.101C260.333 432.062 261.435 429.71 263.481 426.36C266.183 423.635 270.01 420.937 273.947 417.994C275.612 416.52 276.602 415.084 279.146 412.399" stroke="#FF00CC" stroke-width="11.3731" stroke-linecap="round"/>
<path d="M282.98 441.067C288.885 440.015 297.879 437.206 303.889 433.618C306.988 431.768 310.11 428.229 311.801 423.269C312.49 421.249 311.481 419.899 310.675 418.874C307.672 415.05 304.314 413.325 302.101 412.599C294.679 410.167 288.472 421.857 283.019 434.147C280.621 439.551 282.794 444.165 284.486 447.353C288.253 454.449 294.083 455.541 300.037 458.183C307.506 458.33 311.216 456.557 313.752 454.555C314.9 453.486 315.769 452.31 317.401 449.524" stroke="#FF00CC" stroke-width="11.3731" stroke-linecap="round"/>
<path d="M359.025 420.094C358.506 419.851 356.803 418.736 353.986 417.252C349.449 414.863 344.28 420.188 339.677 422.843C337.163 424.293 334.165 430.138 331.177 437.528C330.009 440.415 330.549 441.907 331.417 443.125C333.27 445.723 337.279 447.326 341.127 448.655C344.129 449.692 346.755 447.622 348.713 445.83C349.666 444.832 350.534 443.655 351.955 440.972C353.376 438.289 355.323 434.135 356.911 428.7" stroke="#FF00CC" stroke-width="11.3731" stroke-linecap="round"/>
<path d="M354.624 415.153C360.007 423.424 362.729 428.529 364.288 433.741C365.631 435.973 367.123 438.275 368.602 440.566C369.407 441.591 370.324 442.338 372.473 444.631" stroke="#FF00CC" stroke-width="11.3731" stroke-linecap="round"/>
<path d="M391.404 394.009C394.684 406.092 398.729 423.217 401.396 435.777C401.825 437.268 402.238 438.412 402.744 440.405C403.249 442.398 403.833 445.205 406.058 450.778" stroke="#FF00CC" stroke-width="11.3731" stroke-linecap="round"/>
<path d="M423.638 423.512C424.684 429.386 425.731 435.26 426.449 440.27C427.166 445.28 427.523 449.247 427.891 453.335" stroke="#FF00CC" stroke-width="11.3731" stroke-linecap="round"/>
<path d="M431.922 397.647C430.154 398.718 428.385 399.789 427.23 400.86C426.076 401.931 425.589 402.97 425.858 403.748C426.126 404.527 427.165 405.013 429.341 403.155" stroke="#FF00CC" stroke-width="11.3731" stroke-linecap="round"/>
<path d="M471.088 424.643C468.492 423.426 465.896 422.209 463.873 422.369C454.892 423.079 454.673 436.448 454.868 439.092C455.623 449.318 476.436 452.11 478.543 451.024C479.506 450.353 480.252 449.436 480.941 448.314C481.63 447.193 482.238 445.895 482.816 442.615" stroke="#FF00CC" stroke-width="11.3731" stroke-linecap="round"/>
<path d="M490.068 406.671C488.604 409.794 485.439 417.897 483.444 436.433C483.248 444.354 483.105 448.816 482.906 451.275C482.936 452.575 483.228 453.978 483.529 455.425" stroke="#FF00CC" stroke-width="11.3731" stroke-linecap="round"/>
<path d="M522.94 430.716C520.587 428.979 518.215 427.858 515.824 427.85C513.173 427.842 510.88 429.851 508.773 430.936C506.699 432.005 505.078 436.066 503.632 440.502C502.732 443.262 508.911 446.211 515.384 448.77C517.877 449.756 519.106 449.09 520.198 448.479C521.291 447.868 522.297 447.073 523.119 446.015C523.942 444.956 524.55 443.658 525.177 442.32" stroke="#FF00CC" stroke-width="11.3731" stroke-linecap="round"/>
<path d="M524.097 430.298C526.758 434.079 529.305 436.895 532.645 438.94C537.925 441.578 542.555 443.431 545.408 443.814C546.841 443.848 548.245 443.556 549.691 443.255" stroke="#FF00CC" stroke-width="11.3731" stroke-linecap="round"/>
<path d="M585.954 417.07C583.054 414.435 578.313 411.569 575.47 411.503C567.557 411.32 565.789 423.241 565.074 429.177C564.482 434.099 572.818 436.823 578.103 438.508C580.272 438.733 581.4 437.678 582.346 436.356C583.292 435.034 584.022 433.476 584.774 431.871" stroke="#FF00CC" stroke-width="11.3731" stroke-linecap="round"/>
<path d="M590.208 385.477C589.022 410.486 591.652 422.562 593.012 432.345C593.546 435.637 593.879 438.365 593.945 440.949C593.977 442.25 594.01 443.532 594.83 445.221" stroke="#FF00CC" stroke-width="11.3731" stroke-linecap="round"/>
</svg>
